# xmcd
#
# Track frame offsets:
# 150
# 15317
# 29310
# 40265
# 55118
# 70495
# 86169
# 101153
# 120268
# 132493
# 144700
# 161806
# 175284
# 190386
# 202259
# 215320
# 230093
# 243916
# 256135
# 273776
#
# Disc length: 3833 seconds
#
#
# Revision: 0
# Processed by: cddbd v1.5.1PL2 Copyright (c) Steve Scherf et al.
# Submitted via: FreeRIP 2.942 
#
DISCID=260ef714
DTITLE=Nashville Mandolins - 20 Greatest Gospel Classics
DYEAR=2002
DGENRE=Gospel
TTITLE0=Wayfaring Stranger
TTITLE1=Angel Band
TTITLE2=Faith of Our Fathers
TTITLE3=Let Us Break Bread Together
TTITLE4=Nearer My God to Thee
TTITLE5=His Eye Is On the Sparrow
TTITLE6=Rock of Ages
TTITLE7=Whispering Hope
TTITLE8=Give Me the Roses
TTITLE9=A Mighty Fortress Is Our God
TTITLE10=Leaning on the Everlasting Arms
TTITLE11=I Won't Have to Cross Jordan Alone
TTITLE12=Amen
TTITLE13=Sweet Hour of Prayer
TTITLE14=I Love to Tell the Story
TTITLE15=Blessed Assurance
TTITLE16=Abide with Me
TTITLE17=Swing Low, Sweet Chariot
TTITLE18=Holy Holy Holy
TTITLE19=Onward Christian Soldiers
EXTD=
EXTT0=
EXTT1=
EXTT2=
EXTT3=
EXTT4=
EXTT5=
EXTT6=
EXTT7=
EXTT8=
EXTT9=
EXTT10=
EXTT11=
EXTT12=
EXTT13=
EXTT14=
EXTT15=
EXTT16=
EXTT17=
EXTT18=
EXTT19=
PLAYORDER=
